<svg width="196" height="150" viewBox="0 0 196 150" fill="none" xmlns="http://www.w3.org/2000/svg">
<path d="M12.6604 129.663C11.2952 128.304 9.46146 127.53 7.54249 127.502C4.42927 127.502 3.25474 129.8 3.25474 131.61C3.25474 137.309 15.0095 135.338 15.0095 143.032C15.0095 146.546 12.6227 149.999 7.57551 149.999C6.16182 150.017 4.75958 149.742 3.45622 149.19C2.15286 148.639 0.976328 147.823 0 146.793L1.62736 145.159C2.36227 145.94 3.24736 146.561 4.22866 146.986C5.20995 147.41 6.26687 147.629 7.33494 147.629C10.9293 147.629 12.3161 144.984 12.3161 143.103C12.3161 137.565 0.589625 139.655 0.589625 131.705C0.589625 128.38 2.66511 125.16 7.30193 125.16C8.59566 125.146 9.87924 125.391 11.0784 125.88C12.2775 126.37 13.3684 127.093 14.2878 128.01L12.6604 129.663Z" fill="#00AEEF"/>
<path d="M32.2364 147.624C37.8732 147.624 41.7129 143.549 41.7129 137.56C41.7129 131.571 37.8732 127.492 32.2364 127.492C26.5996 127.492 22.7175 131.576 22.7175 137.565C22.7175 143.554 26.5996 147.624 32.2364 147.624ZM32.2364 125.131C39.4629 125.131 44.411 130.18 44.411 137.56C44.411 144.941 39.4629 149.998 32.2364 149.998C25.01 149.998 20.0288 144.95 20.0288 137.565C20.0288 130.18 24.9722 125.136 32.2364 125.136" fill="#00AEEF"/>
<path d="M53.4337 147.562H62.9102V149.756H50.8394V125.383H53.4337V147.562Z" fill="#00AEEF"/>
<path d="M83.5665 125.378H86.1608V140.875C86.1608 146.342 82.4957 149.999 77.1372 149.999C71.7787 149.999 68.1418 146.342 68.1418 140.875V125.378H70.7362V140.875C70.7362 144.912 73.3306 147.633 77.0995 147.633C80.9391 147.633 83.5712 144.912 83.5712 140.875V125.378H83.5665Z" fill="#00AEEF"/>
<path d="M101.783 149.756H99.1884V127.573H92.2402V125.378H108.736V127.573H101.783V149.756Z" fill="#00AEEF"/>
<path d="M117.345 125.378H114.717V149.752H117.345V125.378Z" fill="#00AEEF"/>
<path d="M135.883 147.624C141.52 147.624 145.359 143.549 145.359 137.561C145.359 131.572 141.52 127.497 135.883 127.497C130.246 127.497 126.373 131.567 126.373 137.561C126.373 143.554 130.265 147.624 135.883 147.624ZM135.883 125.127C143.109 125.127 148.057 130.175 148.057 137.561C148.057 144.946 143.109 149.999 135.883 149.999C128.656 149.999 123.661 144.95 123.661 137.57C123.661 130.19 128.604 125.136 135.869 125.136" fill="#00AEEF"/>
<path d="M156.255 125.378L171.298 144.812V125.378H173.892V149.756H172.128L157.086 130.327V149.756H154.491V125.378H156.255Z" fill="#00AEEF"/>
<path d="M192.671 129.662C191.305 128.306 189.471 127.533 187.553 127.506C184.44 127.506 183.265 129.805 183.265 131.614C183.265 137.313 195.024 135.338 195.024 143.036C195.024 146.551 192.638 149.999 187.586 149.999C186.177 150.015 184.779 149.739 183.481 149.187C182.182 148.635 181.01 147.82 180.039 146.793L181.661 145.159C182.393 145.935 183.274 146.554 184.25 146.977C185.226 147.401 186.277 147.621 187.34 147.624C190.935 147.624 192.322 144.979 192.322 143.098C192.322 137.56 180.595 139.65 180.595 131.7C180.595 128.375 182.671 125.155 187.307 125.155C188.601 125.143 189.884 125.388 191.083 125.877C192.282 126.366 193.373 127.089 194.293 128.005L192.671 129.662Z" fill="#00AEEF"/>
<path d="M0 33.0105H17.1082V44.5153H17.3864C18.9859 40.9274 21.7678 37.7643 25.7319 35.0261C29.8644 32.23 34.7716 30.7914 39.7661 30.9118C44.4674 30.9118 48.4941 31.7337 51.8462 33.3776C55.0477 34.9097 57.8673 37.1312 60.1013 39.8815C62.2795 42.6265 63.885 45.7774 64.8234 49.149C65.8247 52.65 66.3326 56.2725 66.3325 59.9127V104.754H48.3272V64.9967C48.3193 62.7959 48.1683 60.5979 47.8751 58.4166C47.6156 56.2373 46.9555 54.1241 45.9279 52.1828C44.9385 50.3533 43.5216 48.7877 41.7969 47.6183C40.0443 46.4269 37.7261 45.829 34.8423 45.8243C32.2346 45.7557 29.6522 46.3492 27.3384 47.549C25.3116 48.6268 23.5439 50.1298 22.1572 51.9542C20.7633 53.8314 19.7197 55.9429 19.0763 58.188C18.372 60.4919 18.0112 62.8862 18.0053 65.2945V104.775H0V33.0105Z" fill="#00AEEF"/>
<path d="M192.967 85.6588V107.037L159.801 79.4119L126.635 107.037V85.6588L159.801 58.041L192.967 85.6588Z" fill="#FFD700"/>
<path d="M159.801 58.0791L172.632 68.5937L192.967 51.9341V30.9048L159.801 58.0791Z" fill="#00AEEF"/>
<path d="M126.635 51.9341L146.97 68.5937L159.801 58.0791L126.635 30.9048V51.9341Z" fill="#00AEEF"/>
<path d="M105.529 33.166H87.4382V104.775H105.529V33.166Z" fill="#00AEEF"/>
<path d="M107.79 10.9298C107.79 13.0915 107.127 15.2047 105.885 17.0021C104.642 18.7995 102.877 20.2003 100.811 21.0276C98.7445 21.8548 96.4711 22.0713 94.2779 21.6496C92.0846 21.2278 90.0699 20.1869 88.4887 18.6583C86.9074 17.1298 85.8305 15.1823 85.3943 13.0621C84.958 10.9419 85.1819 8.7443 86.0377 6.74714C86.8935 4.74998 88.3427 3.04298 90.202 1.842C92.0614 0.641021 94.2474 0 96.4837 0V0C99.4824 0 102.358 1.15153 104.479 3.20126C106.599 5.25099 107.79 8.03103 107.79 10.9298Z" fill="#00AEEF"/>
</svg>
